<svg width="600" height="300" viewBox="0 0 600 300" fill="none" xmlns="http://www.w3.org/2000/svg">
<path fill-rule="evenodd" clip-rule="evenodd" d="M600 300C600 134.315 465.685 0 300 0C134.4 0 0.138216 134.176 0 299.744V300H24.9999C24.9999 148.122 148.122 25 300 25C451.878 25 575 148.122 575 300H600Z" fill="#FF0000"/>
<path fill-rule="evenodd" clip-rule="evenodd" d="M575 300C575 148.122 451.878 25 300 25C148.122 25 25 148.122 25 300H50C50 161.929 161.929 50 300 50C438.071 50 550 161.929 550 300H575Z" fill="#FF5C00"/>
<path fill-rule="evenodd" clip-rule="evenodd" d="M550 300C550 161.929 438.071 50 300 50C161.929 50 50 161.929 50 300H75C75 175.736 175.736 75 300 75C424.264 75 525 175.736 525 300H550Z" fill="#FFD600"/>
<path fill-rule="evenodd" clip-rule="evenodd" d="M525 300C525 175.736 424.264 75 300 75C175.736 75 75 175.736 75 300H100C100 189.543 189.543 100 300 100C410.457 100 500 189.543 500 300H525Z" fill="#00FF38"/>
<path fill-rule="evenodd" clip-rule="evenodd" d="M500 300C500 189.543 410.457 100 300 100C189.543 100 100 189.543 100 300H125C125 203.35 203.35 125 300 125C396.65 125 475 203.35 475 300H500Z" fill="#00C2FF"/>
<path fill-rule="evenodd" clip-rule="evenodd" d="M475 300C475 203.35 396.65 125 300 125C203.35 125 125 203.35 125 300H150C150 217.157 217.157 150 300 150C382.843 150 450 217.157 450 300H475Z" fill="#0047FF"/>
<path fill-rule="evenodd" clip-rule="evenodd" d="M450 300C450 217.157 382.843 150 300 150C217.157 150 150 217.157 150 300H175C175 229.86 230.964 173 300 173C369.036 173 425 229.86 425 300H450Z" fill="#8F00FF"/>
</svg>
