<?xml version="1.0" standalone="no"?>
<!DOCTYPE svg PUBLIC "-//W3C//DTD SVG 20010904//EN"
 "http://www.w3.org/TR/2001/REC-SVG-20010904/DTD/svg10.dtd">
<svg version="1.0" xmlns="http://www.w3.org/2000/svg"
 width="700.000000pt" height="700.000000pt" viewBox="0 0 700.000000 700.000000"
 preserveAspectRatio="xMidYMid meet">
<metadata>
Created by potrace 1.14, written by Peter Selinger 2001-2017
</metadata>
<g transform="translate(0.000000,700.000000) scale(0.100000,-0.100000)"
fill="#000000" stroke="none">
<path d="M2555 5961 c-89 -22 -178 -101 -211 -187 -18 -47 -19 -89 -19 -1039
0 -1118 -5 -1042 79 -1133 39 -43 118 -89 161 -94 11 -2 -299 -5 -690 -8
l-710 -5 -52 -24 c-65 -29 -134 -101 -159 -166 -18 -48 -19 -88 -19 -1040 0
-952 1 -992 19 -1040 25 -65 94 -137 159 -166 l52 -24 980 0 980 0 51 27 c60
32 118 93 148 157 l21 46 0 1000 c0 996 0 1000 -21 1046 -38 82 -107 144 -193
175 -30 11 32 13 404 13 369 0 434 -2 400 -13 -95 -30 -168 -96 -201 -182 -18
-47 -19 -89 -19 -1049 l0 -1000 27 -50 c34 -65 101 -127 164 -151 47 -18 89
-19 1024 -19 l975 0 54 30 c68 37 125 102 148 168 17 49 18 113 18 1032 0 919
-1 983 -18 1032 -23 66 -80 131 -148 168 l-54 30 -710 5 c-390 3 -701 6 -690
8 34 4 120 58 154 98 18 20 43 58 54 83 l22 46 0 1000 0 1000 -21 46 c-30 64
-88 125 -148 157 l-51 27 -965 2 c-531 0 -978 -2 -995 -6z m1894 -1276 c1
-730 0 -772 -18 -811 -11 -24 -33 -50 -53 -62 l-35 -22 -819 0 c-466 0 -825 4
-833 9 -9 6 318 10 809 11 820 1 824 1 858 22 20 12 42 39 53 62 18 39 19 84
20 846 1 443 5 785 10 760 4 -25 8 -391 8 -815z m-869 508 c40 -37 380 -835
380 -893 0 -73 -94 -117 -151 -71 -13 10 -42 63 -64 117 l-41 99 -204 0 -203
0 -39 -95 c-21 -52 -50 -105 -64 -117 -57 -51 -154 -9 -154 67 0 26 52 161
175 451 196 465 199 469 285 469 40 0 55 -5 80 -27z m-522 -2968 c-3 -809 -3
-814 -24 -842 -12 -15 -36 -37 -55 -48 -33 -20 -52 -20 -844 -20 -522 0 -816
4 -827 10 -11 7 251 10 800 10 799 0 818 0 851 20 19 11 43 33 55 48 21 28 21
30 21 863 0 684 2 830 13 804 10 -24 12 -206 10 -845z m2780 -42 c-3 -767 -3
-772 -24 -800 -12 -15 -36 -37 -55 -48 -33 -20 -52 -20 -844 -20 -522 0 -816
4 -827 10 -11 7 251 10 800 10 909 0 853 -4 904 67 l23 33 4 820 c2 524 7 798
12 760 5 -33 8 -407 7 -832z m-659 539 c135 -51 178 -97 150 -164 -12 -28 -54
-58 -83 -58 -8 0 -50 14 -93 32 -68 28 -90 32 -173 33 -76 0 -104 -4 -141 -21
-66 -31 -114 -78 -146 -142 -25 -51 -28 -68 -28 -157 0 -80 5 -109 21 -146 31
-66 78 -114 142 -146 51 -25 68 -28 152 -28 84 1 104 5 174 33 90 37 124 36
156 -5 23 -30 26 -80 6 -109 -20 -28 -140 -82 -222 -99 -289 -61 -551 92 -615
360 -19 82 -15 239 10 316 41 128 138 242 251 292 86 39 131 47 245 43 94 -3
122 -8 194 -34z m-2875 -2 c75 -29 140 -87 163 -148 34 -90 14 -219 -42 -272
l-24 -23 54 -51 c43 -41 57 -62 70 -110 30 -105 2 -222 -70 -285 -76 -66 -243
-96 -508 -89 -145 3 -147 3 -174 31 l-28 27 0 444 c0 424 1 445 19 465 32 35
72 41 281 37 179 -3 206 -6 259 -26z"/>
<path d="M3440 4793 c-29 -71 -54 -134 -57 -140 -4 -10 23 -13 117 -13 94 0
121 3 117 13 -65 161 -111 267 -117 267 -4 0 -31 -57 -60 -127z"/>
<path d="M1940 2451 l0 -111 98 1 c123 0 186 11 220 36 35 26 49 73 32 113
-21 52 -58 63 -212 68 l-138 4 0 -111z"/>
<path d="M1940 2045 l0 -115 125 0 c212 0 280 27 280 113 0 92 -57 117 -269
117 l-136 0 0 -115z"/>
</g>
</svg>
