<svg width="512" height="512" xmlns="http://www.w3.org/2000/svg"><path fill="#FDC841" stroke="#FDC841" opacity=".988" d="M182.5 75h147q9 2.4 13.5 9.5l4 10v142q-1.9 11.6-10.5 16.5l-5.5 2.5 100.5.5q9 2.4 13.5 9.5l3 7v148q-2.5 8-8.5 12.5l-9 4h-146q-7.7-2.2-12.5-7.5l-5-10v-146q1.9-9.1 8.5-13.5l7.5-3.5-53.5-.5v1q8.3 1.2 11.5 7.5l4 9v146l-6 11.5-11.5 6h-146q-9.1-1.9-13.5-8.5l-4-8v-148q2.4-9.1 9.5-13.5l7-3 100.5-.5-10-5.5-6-12.5v-143q1.9-11.6 10.5-16.5l7-3ZM196 98l-2 1-6 8v118l1 3q3 5 11 6l1-1h115l4-2 2-2 2-6V107l-2-4-5-5H196ZM97 278l-5 2q-5 3-6 9v116l2 5 6 4h121l2-1 5-6V286l-2-3-7-5H97Zm204 0-7 3-4 6v120l1 2 7 5h120l2-1 5-6V293l1-1-2-8q-3-5-9-6H301Z"/><path fill="#FDC841" stroke="#FDC841" opacity=".988" d="M253.5 130q6.1-.7 8.5 1v2q2.7-1.1 2 1.5l5 10 1 5 2 2 1 5 2 2 1 5 2 2 6 17 2 2 1 5 2 2 1 8q-1.5 6-10.5 4.5l-3.5-3.5-4-12-2.5-2.5h-27l-2.5 2.5-3 10-4.5 5.5q-9 1.5-10.5-4.5l1-8 2-2 1-5 2-2 1-5 2-2 3-10 2-2 1-5 2-2 9-23.5q3 1 2-2h2.5l1-1Zm3.5 22q-6 7-8 18-4 1 0 3h15l1-1-2-2-6-18ZM359.5 310q19.3-.2 29.5 8.5l1 6-2.5 3.5-5 1-12-5h-13q-9.1 2.4-13.5 9.5-5.1 6.9-3 21 1.8 8.2 7.5 12.5 6.1 5.9 19 5l14-5h4l2.5 1 2 5.5-3.5 5.5-16 6h-14q-15.8-3.2-23.5-14.5l-6-15v-15q2.7-14.8 12.5-22.5l8-5 12-3ZM134.5 311h23q1.8 2.8 8 1 8.3 1.7 12.5 7.5l3 5 1 9-6 13.5 6 4.5q5 5.5 3 18l-6.5 9.5-14 5h-32l-4.5-3.5v-65l3.5-3.5 3-1Zm15.5 13-1 1h-8v15l2 1q16 2 24-3 2-2 1-8l-5-5-13-1Zm-9 30v16l2 1h20l6-2 3-4-1-6-6-5h-24Z"/><path fill="#D0423E" stroke="#D0423E" d="M196.5 98h119l6.5 4.5 2 6-3-2-1.5-2.5-3-2h-117l-6.5 5.5-1 2v115l4.5 6.5 3.5 1.5-4.5.5-5.5-4.5-2-5v-116l4.5-7.5 4-2Z"/><path fill="#D2423F" stroke="#D2423F" d="M199.5 102h117l4.5 3.5 3 4v113l-2 6-2.5 2.5-4 2h-115l-1 1v-2l-5.5-3.5-2-4v-115l5.5-6.5 2-1Zm53.5 28-2 1-6 9-23 55 1 7q2 3 10 2l3-3 5-12 1-2h29l5 14 4 3 8-1 2-3-1-8-25-58q-2-6-11-4Z"/><path fill="#D2423F" stroke="#D2423F" d="M255 153q2.7-1.1 2 1.5l6 13 1 5.5h-15.5l-.5-2.5 7-17.5Z"/><path fill="#6EAAB9" stroke="#6EAAB9" d="m242.5 186 27.5.5-27.5.5v-1ZM223.5 201l1 2-1-2ZM288.5 201l-1 2 1-2ZM355.5 310l3.5.5-3.5.5v-1ZM367.5 310l4.5.5-4.5.5v-1ZM131.5 311l2.5.5-5.5 3.5 3-4ZM158.5 311l6.5.5-6.5.5v-1ZM373.5 311l2.5.5-2.5.5v-1ZM172.5 314l1 2-1-2ZM344.5 314l-1 2 1-2ZM382.5 314l4.5 2.5-1.5-.5q-3.8-.2-3-2ZM127.5 316l.5 63.5h-1l.5-63.5ZM175.5 316l4.5 5.5-2-1-2.5-4.5ZM341.5 316l-1 2 1-2ZM337.5 319l-2 3 2-3ZM390.5 321l.5 2.5h-1l.5-2.5ZM334.5 323l-2 3 2-3ZM149.5 324l3.5.5-3.5.5v-1ZM357.5 324l3.5.5-3.5.5v-1ZM367.5 324l3.5.5-3.5.5v-1ZM141.5 325l.5 15 17 .5-16.5.5-1.5-1.5.5-14.5ZM158.5 325q7.9-.9 9.5 4.5l-.5 2.5-3-5-6-1v-1ZM181.5 325l.5 3.5h-1l.5-3.5ZM350.5 327l-6 7 6-7ZM167.5 333l.5 2.5-1.5 2.5-.5-1.5 1.5-3.5ZM181.5 334l.5 2.5h-1l.5-2.5ZM327.5 337l.5 2.5h-1l.5-2.5ZM164.5 338l-1 2-2.5-.5 3.5-1.5ZM180.5 338l.5 1.5-4.5 7.5-.5-1.5 4.5-7.5ZM341.5 340l.5 2.5h-1l.5-2.5ZM326.5 342l.5 10.5h-1l.5-10.5ZM178.5 347l5.5 6.5-2-1-3.5-5.5ZM341.5 352l.5 2.5h-1l.5-2.5ZM141.5 354l.5 16 21 .5-20.5.5-1.5-1.5.5-15.5ZM160.5 354l4.5.5-4.5.5v-1ZM166.5 355l2.5 1.5-1.5-.5-1-1ZM327.5 356l.5 2.5h-1l.5-2.5ZM185.5 358l.5 10.5h-1l.5-10.5ZM171.5 360l.5 4.5h-1l.5-4.5ZM329.5 363l2.5 4.5-2-1-.5-3.5ZM345.5 363l3 4-3-4ZM170.5 366l-2 3 2-3ZM382.5 366l2.5.5-2.5.5v-1ZM350.5 367l1 2-1-2ZM388.5 369l1.5 2.5h-1l-.5-2.5ZM355.5 370l2.5.5-2.5.5v-1ZM370.5 370l2.5.5-2.5.5v-1ZM359.5 371l8.5.5-8.5.5v-1ZM334.5 372l6 7-6-7ZM183.5 373l-.5 1.5-3.5 4.5 2.5-3.5 1.5-2.5ZM388.5 377l-1 2 1-2ZM177.5 379l-1 2-3 1v-1l4-2ZM342.5 379l6.5 3.5-1.5.5q-4.6-1.2-5-4ZM128.5 381l4 3 29.5.5-29.5.5-4-4ZM165.5 383l3.5.5-3.5.5v-1ZM353.5 384l2.5.5-2.5.5v-1ZM371.5 384l2.5.5-2.5.5v-1ZM358.5 385l9.5.5-9.5.5v-1Z"/><path fill="#3D995A" stroke="#3D995A" d="m96.5 278 116.5.5-116.5.5v-1ZM300.5 278l114.5.5-114.5.5v-1ZM296.5 279l1.5.5-2.5 1.5 1-2ZM417.5 279l6.5 4.5 1 3h-1l-3.5-5.5q-3.7-.3-3-2ZM218.5 281l1 2-1-2ZM293.5 281l-1 2 1-2ZM86.5 288l.5 116.5h-1l.5-116.5ZM425.5 289l.5 2.5h-1l.5-2.5ZM339.5 317l-1 2 1-2ZM364.5 324l2.5.5-2.5.5v-1ZM389.5 326l-1 2 1-2ZM291.5 408l4 5-4-5ZM88.5 409l2 3-2-3Z"/><path fill="#23A759" stroke="#23A759" d="M298.5 279h118l6.5 4.5 2 7h-1l-2-5.5-7.5-3h-110q-6.6.9-9.5 5.5l-1 2v117l4.5 5.5 4.5 1.5-3.5.5q-6.1-1.4-8.5-6.5l-1-3v-116l4.5-7.5 4-2Z"/><path fill="#23A859" stroke="#23A859" d="M304.5 282h110l7.5 3 3 6.5v114l-4.5 6.5-5 2h-112q-5.7-1.2-8.5-5.5l-1-2v-117l4.5-5.5 6-2Zm58.5 27-1 1-11 1-11 6q-11 8-14 25-1 19 7 30t25 14q22 1 32-9 1-7-1-9l-4-2h-3l-12 5q-14 2-20-4l-6-6-3-10 1-11 3-6 6-6 6-3q5 2 7-1 1 3 8 1l12 5 5-2 2-4-1-5-8-6-10-3h-8l-1-1Z"/><path fill="#2074A8" stroke="#2074A8" d="M94.5 279h120l6.5 5.5 1 6h-1l-4.5-6.5-5-2h-111q-6.5 1.5-9.5 6.5l-1 4v111q1.3 5.8 5.5 8.5l4.5 1.5-4.5.5-7.5-5.5-1-2v-120l3.5-5.5 4-2ZM219.5 409l-2 3 2-3Z"/><path fill="#2175AA" stroke="#2175AA" d="M100.5 282h111q5.8 1.3 8.5 5.5l2 4v112q-1.2 5.8-5.5 8.5l-5 2h-111q-5.7-1.2-8.5-5.5l-2-5v-111l1-4 4.5-4.5 5-2Zm31.5 29-5 6v63l1 2 5 3h29l13-3 5-3q4-4 6-10 2-12-3-17l-6-5 5-10q2-12-3-17-5-7-14-9h-33Z"/><path fill="#2175AA" stroke="#2175AA" d="M142 325h15.5l5 1 4.5 3.5 1 3-2 5.5-5.5 2H142v-15ZM142 354q17.6-1.9 28 3 1.8 2.4 1 8.5l-6.5 4.5H142v-16Z"/></svg>