<?xml version="1.0" ?><svg viewBox="0 0 128 128" xmlns="http://www.w3.org/2000/svg"><defs><style>.cls-1{fill:#ffc219;}.cls-2{fill:#ffce47;}.cls-3{fill:#23a859;}.cls-4{fill:#fff;}.cls-5{fill:#f47c27;}.cls-6{fill:#ffda75;}.cls-7{fill:#d2423f;}.cls-8{fill:#ba3b38;}.cls-9{fill:#2175aa;}.cls-10{fill:#1d6694;}.cls-11{fill:#299455;}</style></defs><title/><g data-name="26 Alphabet" id="_26_Alphabet"><rect class="cls-1" height="45.18" rx="5.65" ry="5.65" width="45.18" x="66.82" y="64"/><path class="cls-2" d="M105.72,70.71c.89,1.1.63-.65.63,30a2.82,2.82,0,0,1-2.82,2.82H75.29a2.8,2.8,0,0,1-1.76-.63A2.81,2.81,0,0,0,75.73,104H104a2.82,2.82,0,0,0,2.82-2.82C106.79,70.78,107.2,71.9,105.72,70.71Z"/><rect class="cls-3" height="33.88" rx="2.82" ry="2.82" transform="translate(176 -2.82) rotate(90)" width="33.88" x="72.47" y="69.65"/><path class="cls-4" d="M95.14,91.78c-4.8,2.51-9.91.66-9.91-4.84s5.12-7.33,9.92-4.83a1.68,1.68,0,0,0,1.54-3c-7.07-4-15.08-.38-15.08,7.82s8,11.81,15.07,7.83A1.68,1.68,0,0,0,95.14,91.78Z"/><path class="cls-5" d="M106.35,64h-1A5.65,5.65,0,0,1,111,69.65v33.88a5.65,5.65,0,0,1-5.65,5.65h1a5.65,5.65,0,0,0,5.65-5.65V69.65A5.65,5.65,0,0,0,106.35,64Z"/><path class="cls-6" d="M67.82,103.53V69.65A5.65,5.65,0,0,1,73.47,64h-1a5.65,5.65,0,0,0-5.65,5.65v33.88a5.65,5.65,0,0,0,5.65,5.65h1A5.65,5.65,0,0,1,67.82,103.53Z"/><rect class="cls-1" height="45.18" rx="5.65" ry="5.65" width="45.18" x="41.41" y="18.82"/><path class="cls-5" d="M80.94,18.82h-1a5.65,5.65,0,0,1,5.65,5.65V58.35A5.65,5.65,0,0,1,79.94,64h1a5.65,5.65,0,0,0,5.65-5.65V24.47A5.65,5.65,0,0,0,80.94,18.82Z"/><path class="cls-6" d="M42.41,58.35V24.47a5.65,5.65,0,0,1,5.65-5.65h-1a5.65,5.65,0,0,0-5.65,5.65V58.35A5.65,5.65,0,0,0,47.06,64h1A5.65,5.65,0,0,1,42.41,58.35Z"/><rect class="cls-7" height="33.88" rx="2.82" ry="2.82" transform="translate(105.41 -22.59) rotate(90)" width="33.88" x="47.06" y="24.47"/><path class="cls-2" d="M80.31,25.54c.89,1.1.63-.65.63,30a2.82,2.82,0,0,1-2.82,2.82H49.88a2.8,2.8,0,0,1-1.76-.63,2.81,2.81,0,0,0,2.19,1.07H78.56A2.82,2.82,0,0,0,81.38,56C81.38,25.61,81.79,26.72,80.31,25.54Z"/><path class="cls-8" d="M78.12,24.47H49.88a2.82,2.82,0,0,0-2.82,2.82V55.53a2.82,2.82,0,0,0,2.82,2.82h.83a2.82,2.82,0,0,1-2.82-2.82V28.12a2.82,2.82,0,0,1,2.82-2.82H78.12a2.82,2.82,0,0,1,2.82,2.82v-.83A2.82,2.82,0,0,0,78.12,24.47Z"/><path class="cls-4" d="M72.37,48.51,66.17,33.88a2.37,2.37,0,0,0-4.35,0L55.63,48.51A1.81,1.81,0,1,0,58.95,50l1.4-3.35h7.31L69.06,50A1.81,1.81,0,1,0,72.37,48.51Zm-6.15-5.33H61.78L64,37.83Z"/><rect class="cls-1" height="45.18" rx="5.65" ry="5.65" width="45.18" x="16" y="64"/><path class="cls-2" d="M54.9,70.71a2.8,2.8,0,0,1,.63,1.76v28.24a2.82,2.82,0,0,1-2.82,2.82H24.47a2.8,2.8,0,0,1-1.76-.63A2.81,2.81,0,0,0,24.91,104H53.14A2.82,2.82,0,0,0,56,101.14V72.91A2.81,2.81,0,0,0,54.9,70.71Z"/><path class="cls-5" d="M55.53,64h-1a5.65,5.65,0,0,1,5.65,5.65v33.88a5.65,5.65,0,0,1-5.65,5.65h1a5.65,5.65,0,0,0,5.65-5.65V69.65A5.65,5.65,0,0,0,55.53,64Z"/><path class="cls-6" d="M17,103.53V69.65A5.65,5.65,0,0,1,22.65,64h-1A5.65,5.65,0,0,0,16,69.65v33.88a5.65,5.65,0,0,0,5.65,5.65h1A5.65,5.65,0,0,1,17,103.53Z"/><rect class="cls-9" height="33.88" rx="2.82" ry="2.82" transform="translate(125.18 48) rotate(90)" width="33.88" x="21.65" y="69.65"/><path class="cls-4" d="M43.91,86.49c2.83-2.45,2.29-8.72-4.56-8.72H33.62a1.8,1.8,0,0,0-1.8,1.82V94.33a1.78,1.78,0,0,0,1.8,1.8c6.13,0,12.82.84,12.82-5.46A4.57,4.57,0,0,0,43.91,86.49ZM35.45,85.1V81.25c3.19,0,6.52-.42,6.52,1.79C42,85.52,39.27,85.1,35.45,85.1Zm7.45,5.46c0,2.48-3,2.08-7.45,2.08V88.5C39.82,88.5,42.89,88.15,42.89,90.56Z"/><path class="cls-10" d="M52.71,69.65H24.47a2.82,2.82,0,0,0-2.82,2.82v28.24a2.82,2.82,0,0,0,2.82,2.82h.83a2.82,2.82,0,0,1-2.82-2.82V73.3a2.82,2.82,0,0,1,2.82-2.82H52.71a2.82,2.82,0,0,1,2.82,2.82v-.83A2.82,2.82,0,0,0,52.71,69.65Z"/><path class="cls-11" d="M103.53,69.65H75.29a2.82,2.82,0,0,0-2.82,2.82v28.24a2.82,2.82,0,0,0,2.82,2.82h.83a2.82,2.82,0,0,1-2.82-2.82V73.3a2.82,2.82,0,0,1,2.82-2.82h27.41a2.82,2.82,0,0,1,2.82,2.82v-.83A2.82,2.82,0,0,0,103.53,69.65Z"/></g></svg>