<?xml version="1.0" ?><!DOCTYPE svg  PUBLIC '-//W3C//DTD SVG 1.1//EN'  'http://www.w3.org/Graphics/SVG/1.1/DTD/svg11.dtd'><svg height="512px" style="enable-background:new 0 0 512 512;" version="1.1" viewBox="0 0 512 512" width="512px" xml:space="preserve" xmlns="http://www.w3.org/2000/svg" xmlns:xlink="http://www.w3.org/1999/xlink"><g id="_x35_19_x2C__laptop_x2C__hardware_x2C__arrow_x2C__education"><g><polygon points="491,326 491,349.07 461,386 51,386 21,348.04 21,326 41,326 171,326 201,356 311,356     341,326 471,326   " style="fill:#57606F;"/><g><g><g><polygon points="30.75,357.04 30.75,335 50.75,335 180,335 171,326 41,326 21,326 21,348.04 51,386        53.637,386      " style="fill:#414A56;"/></g></g></g><polygon points="341,326 311,356 201,356 171,326   " style="fill:#FEBE76;"/><polygon points="189.667,333.25 333.75,333.25 341,326 171,326 201,356 212.417,356   " style="fill:#E8A664;"/><path d="M438.25,26H111H73.75C55.66,26,41,40.66,41,58.75V76v210v40h130h170h130v-40V58.75    C471,40.66,456.34,26,438.25,26z" style="fill:#E8F9F9;"/><path d="M52.833,298.5v-210V71.25c0-18.09,14.66-32.75,32.75-32.75h37.25h327.25    c6.239,0,12.07,1.746,17.033,4.773C461.593,32.991,450.74,26,438.25,26H111H73.75C55.66,26,41,40.66,41,58.75V76v210v40h11.833    V298.5z" style="fill:#CCE5E4;"/><path d="M369.31,122.93v42.35c0,5.7-0.68,11.04-2.05,16.03c-1.359,5-3.51,9.36-6.43,13.11c-2.93,3.74-6.69,6.71-11.29,8.89    c-4.61,2.18-10.1,3.27-16.5,3.27c-6.63,0-12.271-1.15-16.91-3.45c-4.64-2.3-8.399-5.34-11.29-9.12    c-2.88-3.79-4.97-8.17-6.26-13.17c-1.28-4.99-1.93-10.17-1.93-15.56v-42.35H312.8v42.35c0,3.51,0.33,6.89,0.99,10.12    c0.67,3.24,1.8,6.11,3.4,8.6c1.6,2.5,3.68,4.51,6.26,6.03c2.569,1.52,5.729,2.28,9.47,2.28c3.83,0,7.04-0.78,9.66-2.34    c2.61-1.56,4.71-3.59,6.31-6.08c1.601-2.5,2.73-5.37,3.4-8.6c0.66-3.24,0.99-6.57,0.99-10.01v-42.35H369.31z"/><rect height="20" width="20" x="281" y="276"/><path d="M282.62,148.26c1.71,5.03,2.57,10.4,2.57,16.09c0,6.32-0.96,12.03-2.87,17.14c-1.91,5.11-4.66,9.47-8.24,13.1    c-3.59,3.63-7.9,6.44-12.93,8.43c-5.03,1.98-10.67,2.98-16.91,2.98h-30.19v-83.07h30.19c6.79,0,12.73,1.09,17.84,3.28    c5.11,2.18,9.38,5.14,12.81,8.89C278.33,138.84,280.9,143.23,282.62,148.26z M268.93,164.35c0-3.98-0.55-7.65-1.64-11    s-2.69-6.24-4.8-8.66c-2.101-2.41-4.7-4.29-7.78-5.61c-3.08-1.33-6.57-1.99-10.47-1.99H230.2v54.75h14.04    c3.98,0,7.51-0.7,10.59-2.1c3.08-1.41,5.65-3.34,7.72-5.79c2.07-2.46,3.65-5.37,4.74-8.72S268.93,168.25,268.93,164.35z"/><rect height="20" width="20" x="241" y="276"/><rect height="20" width="20" x="201" y="276"/><polygon points="201.42,191.84 201.42,206 143.74,206 143.74,122.93 200.37,122.93 200.37,137.09 159.88,137.09 159.88,157.09     194.87,157.09 194.87,170.2 159.88,170.2 159.88,191.84   "/><path d="M461,391H51c-1.529,0-2.975-0.7-3.923-1.899l-30-37.96C16.379,350.258,16,349.165,16,348.04V326c0-2.762,2.239-5,5-5h20    c2.761,0,5,2.238,5,5s-2.239,5-5,5H26v15.303L53.421,381H458.62L486,347.295V331h-15c-2.762,0-5-2.238-5-5s2.238-5,5-5h20    c2.762,0,5,2.238,5,5v23.07c0,1.148-0.396,2.262-1.119,3.152l-30,36.93C463.932,390.321,462.506,391,461,391z"/><path d="M311,361H201c-1.326,0-2.598-0.526-3.536-1.465l-30-30c-1.953-1.952-1.953-5.118,0-7.07c1.953-1.953,5.118-1.953,7.071,0    L203.071,351h105.857l28.536-28.535c1.951-1.953,5.119-1.953,7.07,0c1.953,1.952,1.953,5.118,0,7.07l-30,30    C313.598,360.474,312.326,361,311,361z"/><path d="M471,331H41c-2.761,0-5-2.238-5-5V58.75C36,37.935,52.935,21,73.75,21h364.5C459.065,21,476,37.935,476,58.75V326    C476,328.762,473.762,331,471,331z M46,321h420V58.75C466,43.449,453.552,31,438.25,31H73.75C58.449,31,46,43.449,46,58.75V321z"/><path d="M171,291H41c-2.761,0-5-2.238-5-5s2.239-5,5-5h130c2.761,0,5,2.238,5,5S173.761,291,171,291z"/><path d="M471,291H331c-2.762,0-5-2.238-5-5s2.238-5,5-5h140c2.762,0,5,2.238,5,5S473.762,291,471,291z"/><path d="M201,491H61c-2.761,0-5-2.238-5-5s2.239-5,5-5h135v-35.657l-22.227,14.817c-2.298,1.531-5.401,0.911-6.934-1.387    c-1.532-2.298-0.911-5.402,1.387-6.934l30-20c1.533-1.022,3.507-1.118,5.133-0.248c1.625,0.87,2.641,2.564,2.641,4.408v50    C206,488.762,203.761,491,201,491z"/><path d="M230.996,461.001c-0.953,0-1.917-0.272-2.769-0.841l-30-20c-2.298-1.531-2.918-4.636-1.387-6.934    c1.531-2.299,4.636-2.92,6.934-1.387l30,20c2.298,1.531,2.918,4.636,1.387,6.934C234.197,460.219,232.611,461.001,230.996,461.001    z"/><path d="M461,491H321c-2.762,0-5-2.238-5-5v-50c0-1.844,1.015-3.538,2.641-4.408c1.625-0.869,3.598-0.775,5.133,0.248l30,20    c2.298,1.531,2.919,4.636,1.387,6.934c-1.53,2.298-4.636,2.919-6.934,1.387L326,445.343V481h135c2.762,0,5,2.238,5,5    S463.762,491,461,491z"/><path d="M291.005,461.001c-1.616,0-3.201-0.782-4.165-2.228c-1.532-2.298-0.911-5.402,1.387-6.934l30-20    c2.299-1.532,5.401-0.911,6.934,1.387s0.911,5.402-1.387,6.934l-30,20C292.921,460.729,291.958,461.001,291.005,461.001z"/><path d="M261,491c-2.762,0-5-2.238-5-5v-60c0-2.762,2.238-5,5-5s5,2.238,5,5v60C266,488.762,263.762,491,261,491z"/><path d="M351,81H41c-2.761,0-5-2.239-5-5s2.239-5,5-5h310c2.762,0,5,2.239,5,5S353.762,81,351,81z"/></g></g><g id="Layer_1"/></svg>