<?xml version="1.0" ?><!DOCTYPE svg  PUBLIC '-//W3C//DTD SVG 1.1//EN'  'http://www.w3.org/Graphics/SVG/1.1/DTD/svg11.dtd'><svg height="512px" id="Layer_1" style="enable-background:new 0 0 512 512;" version="1.1" viewBox="0 0 512 512" width="512px" xml:space="preserve" xmlns="http://www.w3.org/2000/svg" xmlns:xlink="http://www.w3.org/1999/xlink"><g><path d="M512,256.2C512,114.573,397.436,0,255.802,0   C114.571,0,0,114.573,0,256.2C0,397.431,114.571,512,255.802,512C397.436,512,512,397.431,512,256.2L512,256.2z" style="fill-rule:evenodd;clip-rule:evenodd;fill:#A3D5E0;"/><path d="M222.784,330.992c-0.801,13.528-3.98,22.278-7.565,29.835   c-5.167,10.351-11.931,17.114-21.08,21.884c-29.042,25.863,3.974,23.47,61.265,56.896c61.267-34.619,92.69-30.638,62.459-56.104   c-9.146-4.77-15.913-11.928-21.082-22.677c-3.59-7.557-5.975-17.104-6.772-29.835c0,0-22.668,17.508-36.99,14.721   C239.094,342.929,222.784,330.992,222.784,330.992L222.784,330.992z" style="fill-rule:evenodd;clip-rule:evenodd;fill:#F0B97D;"/><polygon points="141.626,144.408 264.162,200.109 379.125,147.595    256.993,91.896 141.626,144.408  " style="fill-rule:evenodd;clip-rule:evenodd;fill:#666666;"/><path d="M256.596,175.438c-59.276,0-68.028,42.967-68.028,95.878   c0,54.108,45.352,95.482,68.028,95.482c22.286,0,68.035-41.374,68.035-95.482C324.631,218.405,315.872,175.438,256.596,175.438   L256.596,175.438z" style="fill-rule:evenodd;clip-rule:evenodd;fill:#FED198;"/><path d="M189.363,265.354c-3.181-11.937-7.558-11.937-9.546-8.758   c-1.589,2.79,4.77,14.322,4.77,23.877c0,9.544,3.188,10.736,6.366,7.558C194.536,284.445,189.363,265.354,189.363,265.354   L189.363,265.354z" style="fill-rule:evenodd;clip-rule:evenodd;fill:#FED198;"/><path d="M232.331,327.809c0,0,14.72-7.158,19.093-7.158   c1.995,0,3.98,2.386,5.173,2.386c0.795,0,3.18-2.386,5.168-2.386c4.384,0,18.705,7.158,18.705,7.158s-3.19,2.386-5.975,3.578   c-7.154,2.792-12.335,5.177-17.899,5.177c-5.968,0-11.135-2.385-17.899-5.177C235.907,330.194,232.331,327.809,232.331,327.809   L232.331,327.809z" style="fill-rule:evenodd;clip-rule:evenodd;fill:#E26868;"/><path d="M247.051,268.933c-0.796,9.543-9.546,25.863-24.267,26.656   c-14.321,0.798-23.875-8.758-27.056-16.711c-3.584-8.355-4.776-21.081,5.174-25.859c10.342-5.172,25.459-5.172,36.204-0.793   C247.846,256.2,247.846,262.566,247.051,268.933L247.051,268.933z M276.086,252.226c10.745-4.379,25.466-4.379,35.814,0.793   c10.334,4.778,8.742,17.504,5.563,25.859c-3.178,7.953-12.733,17.509-27.455,16.711c-14.72-0.793-23.063-17.113-24.255-26.656   C264.955,262.566,265.354,256.2,276.086,252.226L276.086,252.226z M256.596,255.007v10.747c1.589,0,2.782,0.793,3.976,3.179   c1.192,1.985,3.59,10.341,4.383,11.937c0.799,1.591,5.17,11.533,16.707,15.518c11.529,3.973,21.082,2.385,29.441-4.384   c8.347-6.759,11.525-18.691,12.734-23.865c1.192-5.571,4.77-6.763,5.164-7.558c0.798-0.397,1.192-1.99,1.192-3.984   c0-1.986,0-5.167-0.395-5.563c-0.398-0.398-10.35-5.97-23.877-6.764c-13.924-0.796-27.041,0.793-35.798,5.968   C261.366,255.404,259.776,255.007,256.596,255.007c-3.578,0-5.173,0.396-13.924-4.77c-8.354-5.175-21.882-6.764-35.41-5.968   c-13.919,0.793-23.47,6.365-23.867,6.764c-0.397,0.396-0.397,3.578-0.397,5.563c0,1.994,0,3.586,0.794,3.984   c0.795,0.795,3.982,1.986,5.571,7.558c1.192,5.174,3.98,17.106,12.732,23.865c8.353,6.769,17.901,8.356,29.438,4.384   c11.534-3.984,15.517-13.927,16.312-15.518c0.794-1.596,3.577-9.951,4.379-11.937c1.192-2.386,2.385-3.179,4.371-3.179V255.007z" style="fill-rule:evenodd;clip-rule:evenodd;fill:#221F20;"/><path d="M324.232,266.148c2.783-10.346,6.361-10.346,7.952-7.559   c1.587,2.386-3.977,12.727-3.977,21.484c0,8.353-2.783,9.545-5.974,6.361C319.45,283.253,324.232,266.148,324.232,266.148   L324.232,266.148z" style="fill-rule:evenodd;clip-rule:evenodd;fill:#FED198;"/><path d="M256.596,139.242c38.2,0,63.253,19.49,70.819,54.104   c10.345,50.526-2.784,73.201-4.375,77.971c0,0-4.384-61.264-66.444-80.355c-62.457,19.091-66.836,80.355-66.836,80.355   c-1.192-4.77-14.718-27.444-3.974-77.971C192.947,158.732,218.405,139.242,256.596,139.242L256.596,139.242z" style="fill-rule:evenodd;clip-rule:evenodd;fill:#413432;"/><path d="M191.748,148.787c30.235-20.29,103.441-19.494,130.486,1.192   l2.796,33.82c-46.945-12.335-88.327-11.938-136.462,0.793L191.748,148.787L191.748,148.787L191.748,148.787z" style="fill-rule:evenodd;clip-rule:evenodd;fill:#807D7D;"/><path d="M163.508,136.055l0.396,66.439v1.988h-3.982v-1.988v-64.848   C159.922,133.672,163.109,133.273,163.508,136.055L163.508,136.055z" style="fill-rule:evenodd;clip-rule:evenodd;fill:#FFFFFF;"/><path d="M154.351,214.432c0,17.901-3.575,33.415-3.575,34.208   c-0.399,1.2,3.178,4.378,3.974,1.2c0.794-3.585,0,0,3.187,0.397c3.179,0,3.578-1.597,3.578-1.597s0.793,1.597,3.98,1.597   c3.181-0.397,2.385-3.982,3.181-0.397c0.795,3.178,4.379,0,3.982-1.2c0-0.794-3.982-16.308-3.982-34.208   c0-6.765-2.782-9.949-7.161-11.142c-3.977,1.192-6.764,4.377-6.764,11.142H154.351z" style="fill-rule:evenodd;clip-rule:evenodd;fill:#FFBA1B;"/><path d="M161.514,203.29c7.161,0,7.558,4.776,7.161,8.75   c-1.589-1.192-4.373-2.385-7.161-2.385c-2.784,0-5.169,1.192-6.764,2.385C154.351,207.271,154.75,203.29,161.514,203.29   L161.514,203.29z" style="fill-rule:evenodd;clip-rule:evenodd;fill:#807D7D;"/><path d="M299.167,359.241c22.668,24.263,49.325,34.613,88.717,40.579   c28.644,3.977,42.171,22.274,48.134,38.183C389.869,483.756,326.223,512,255.802,512c-70.016,0-133.672-28.244-179.819-73.997   c5.968-15.908,19.49-34.206,48.133-38.183c38.993-5.966,66.041-16.316,88.717-40.579l42.969,38.189L299.167,359.241z" style="fill-rule:evenodd;clip-rule:evenodd;fill:#FEFEFE;"/><path d="M340.938,387.883c13.528,5.572,29.047,9.15,46.945,11.938   c28.644,3.977,42.171,22.274,48.134,38.183C391.062,482.563,329.401,510.808,261.366,512L340.938,387.883z M250.628,512   l-79.563-124.117c-13.925,5.572-29.042,9.15-46.949,11.938c-28.644,3.977-42.165,22.274-48.133,38.183   C120.938,482.563,182.599,510.808,250.628,512L250.628,512z" style="fill-rule:evenodd;clip-rule:evenodd;fill:#131212;"/><polygon points="194.139,375.549 192.55,373.961 194.139,375.549    194.139,375.549  " style="fill-rule:evenodd;clip-rule:evenodd;fill:#699791;"/><polygon points="244.261,439.607 194.139,375.549 194.139,375.549    244.261,436.018 255.802,397.431  " style="fill-rule:evenodd;clip-rule:evenodd;fill:#D3D3D3;"/><polygon points="212.833,359.241 192.55,373.961 244.261,436.018    255.802,397.431  " style="fill-rule:evenodd;clip-rule:evenodd;fill:#F3F1F3;"/><path d="M317.863,375.549c-3.577-2.386-7.155-5.165-10.749-8.356   l11.937,6.769L317.863,375.549z" style="fill-rule:evenodd;clip-rule:evenodd;fill:#699791;"/><path d="M267.739,439.607l-11.937-42.177   c29.835,0,43.365-26.253,43.365-34.608l0,0l7.947,4.37c3.594,3.191,7.172,5.971,10.749,8.356L267.739,439.607z" style="fill-rule:evenodd;clip-rule:evenodd;fill:#CBC9C6;"/><path d="M255.802,397.431l42.571-35.007l0.794,0.398l0,0   C299.167,371.178,285.638,397.431,255.802,397.431L255.802,397.431z" style="fill-rule:evenodd;clip-rule:evenodd;fill:#BF987C;"/><polygon points="299.167,359.241 319.051,373.961 267.739,436.018    255.802,397.431  " style="fill-rule:evenodd;clip-rule:evenodd;fill:#F3F1F3;"/></g></svg>