<svg width="160" height="147" viewBox="0 0 160 147" fill="none" xmlns="http://www.w3.org/2000/svg">
<path d="M95.4743 12.253L103.937 35.1185C106.478 41.9857 113.026 46.5446 120.349 46.5446H142.522C159.02 46.5446 165.304 68.0831 151.395 76.9555L137.427 85.8655C130.482 90.2953 127.567 98.9683 130.426 106.693L136.626 123.448C142.115 138.279 125.612 151.59 112.279 143.086L89.4111 128.499C83.6712 124.838 76.3288 124.838 70.5889 128.499L47.7215 143.086C34.3884 151.59 17.8849 138.279 23.3738 123.448L29.5745 106.693C32.4334 98.9683 29.5181 90.2953 22.5735 85.8655L8.60516 76.9555C-5.30421 68.0832 0.980343 46.5446 17.4785 46.5446H39.6514C46.9738 46.5446 53.522 41.9857 56.0635 35.1185L64.5257 12.253C69.8418 -2.11122 90.1582 -2.1112 95.4743 12.253Z" stroke="#D90D0D"/>
</svg>
